<svg xmlns="http://www.w3.org/2000/svg" width="86" height="10" viewBox="0 0 86 10" fill="none">
  <path d="M5.25 0L6.875 3.29167L10.5 3.83333L7.875 6.375L8.5 10L5.25 8.29167L2 10L2.625 6.375L0 3.83333L3.625 3.29167L5.25 0Z" fill="#FFA500"/>
  <path d="M23.9165 0L25.5415 3.29167L29.1665 3.83333L26.5415 6.375L27.1665 10L23.9165 8.29167L20.6665 10L21.2915 6.375L18.6665 3.83333L22.2915 3.29167L23.9165 0Z" fill="#FFA500"/>
  <path d="M42.5835 0L44.2085 3.29167L47.8335 3.83333L45.2085 6.375L45.8335 10L42.5835 8.29167L39.3335 10L39.9585 6.375L37.3335 3.83333L40.9585 3.29167L42.5835 0Z" fill="#FFA500"/>
  <path d="M61.25 0L62.875 3.29167L66.5 3.83333L63.875 6.375L64.5 10L61.25 8.29167L58 10L58.625 6.375L56 3.83333L59.625 3.29167L61.25 0Z" fill="#FFA500"/>
  <path d="M79.9165 0L81.5415 3.29167L85.1665 3.83333L82.5415 6.375L83.1665 10L79.9165 8.29167L76.6665 10L77.2915 6.375L74.6665 3.83333L78.2915 3.29167L79.9165 0Z" fill="#FFA500"/>
</svg>